<svg width="258" height="100" viewBox="0 0 258 100" fill="none" xmlns="http://www.w3.org/2000/svg">
<path d="M43.8793 27L39.3673 15.6H41.6233L44.8873 24.48H44.1673L47.4073 15.6H48.6553L51.8953 24.48H51.1753L54.4393 15.6H56.6953L52.2073 27H50.9353L47.6473 18.384H48.4393L45.1273 27H43.8793ZM63.5671 27.24C62.4311 27.24 61.4071 26.984 60.4951 26.472C59.5831 25.944 58.8631 25.232 58.3351 24.336C57.8071 23.44 57.5431 22.424 57.5431 21.288C57.5431 20.168 57.7991 19.16 58.3111 18.264C58.8391 17.368 59.5431 16.664 60.4231 16.152C61.3191 15.624 62.3191 15.36 63.4231 15.36C64.4791 15.36 65.4071 15.6 66.2071 16.08C67.0231 16.56 67.6551 17.224 68.1031 18.072C68.5671 18.92 68.7991 19.88 68.7991 20.952C68.7991 21.112 68.7911 21.288 68.7751 21.48C68.7591 21.656 68.7271 21.864 68.6791 22.104H59.0551V20.304H67.5271L66.7351 21C66.7351 20.232 66.5991 19.584 66.3271 19.056C66.0551 18.512 65.6711 18.096 65.1751 17.808C64.6791 17.504 64.0791 17.352 63.3751 17.352C62.6391 17.352 61.9911 17.512 61.4311 17.832C60.8711 18.152 60.4391 18.6 60.1351 19.176C59.8311 19.752 59.6791 20.432 59.6791 21.216C59.6791 22.016 59.8391 22.72 60.1591 23.328C60.4791 23.92 60.9351 24.384 61.5271 24.72C62.1191 25.04 62.7991 25.2 63.5671 25.2C64.2071 25.2 64.7911 25.088 65.3191 24.864C65.8631 24.64 66.3271 24.304 66.7111 23.856L68.1031 25.272C67.5591 25.912 66.8871 26.4 66.0871 26.736C65.3031 27.072 64.4631 27.24 63.5671 27.24ZM74.7783 27.24C74.1383 27.24 73.5303 27.16 72.9543 27C72.3943 26.824 71.8743 26.584 71.3943 26.28C70.9143 25.96 70.4983 25.584 70.1463 25.152L71.5383 23.76C71.9543 24.272 72.4343 24.656 72.9783 24.912C73.5223 25.152 74.1303 25.272 74.8023 25.272C75.4743 25.272 75.9943 25.16 76.3623 24.936C76.7303 24.696 76.9143 24.368 76.9143 23.952C76.9143 23.536 76.7623 23.216 76.4583 22.992C76.1703 22.752 75.7943 22.56 75.3303 22.416C74.8663 22.256 74.3703 22.104 73.8423 21.96C73.3303 21.8 72.8423 21.6 72.3783 21.36C71.9143 21.12 71.5303 20.792 71.2263 20.376C70.9383 19.96 70.7943 19.408 70.7943 18.72C70.7943 18.032 70.9623 17.44 71.2983 16.944C71.6343 16.432 72.0983 16.04 72.6903 15.768C73.2983 15.496 74.0263 15.36 74.8743 15.36C75.7703 15.36 76.5623 15.52 77.2503 15.84C77.9543 16.144 78.5303 16.608 78.9783 17.232L77.5863 18.624C77.2663 18.208 76.8663 17.888 76.3863 17.664C75.9223 17.44 75.3943 17.328 74.8023 17.328C74.1783 17.328 73.6983 17.44 73.3623 17.664C73.0423 17.872 72.8823 18.168 72.8823 18.552C72.8823 18.936 73.0263 19.232 73.3143 19.44C73.6023 19.648 73.9783 19.824 74.4423 19.968C74.9223 20.112 75.4183 20.264 75.9303 20.424C76.4423 20.568 76.9303 20.768 77.3943 21.024C77.8583 21.28 78.2343 21.624 78.5223 22.056C78.8263 22.488 78.9783 23.056 78.9783 23.76C78.9783 24.832 78.5943 25.68 77.8263 26.304C77.0743 26.928 76.0583 27.24 74.7783 27.24ZM83.1485 27V10.824H85.3085V27H83.1485ZM80.3405 17.568V15.6H88.1165V17.568H80.3405ZM93.9764 27.096L89.0324 15.6H91.4324L95.1044 24.6H94.3364L98.2004 15.6H100.6L95.2724 27.096H93.9764ZM90.7124 31.776L94.0724 24.888L95.2724 27.096L93.1124 31.776H90.7124Z" fill="white"/>
<path d="M22 18.2502V24.8285C22 25.5372 22.7167 26.021 23.3739 25.756L26.5491 24.4758C27.2064 24.2108 27.9231 24.6946 27.9231 25.4033V29.2266C27.9231 29.8714 28.5243 30.3476 29.152 30.2L31.7711 29.5841C32.3987 29.4364 33 29.9127 33 30.5575V38.2502" stroke="#8E5DF5" stroke-width="5"/>
<path d="M17.1393 4.13245C12.79 4.15077 3.87327 6.68096 3.00064 16.6552" stroke="#8E5DF5" stroke-width="5"/>
<path d="M21 3.25024C25.3333 3.65604 34 7.02416 34 17.2502" stroke="#8E5DF5" stroke-width="5"/>
<path d="M19 35.2502C14.6667 34.8444 6 31.4763 6 21.2502" stroke="#8E5DF5" stroke-width="5"/>
</svg>
