<svg width="230" height="89" viewBox="0 0 230 89" fill="none" xmlns="http://www.w3.org/2000/svg">
<path d="M39.9232 27L35.4112 15.6H37.6672L40.9312 24.48H40.2112L43.4512 15.6H44.6992L47.9392 24.48H47.2192L50.4832 15.6H52.7392L48.2512 27H46.9792L43.6912 18.384H44.4832L41.1712 27H39.9232ZM59.6111 27.24C58.4751 27.24 57.4511 26.984 56.5391 26.472C55.6271 25.944 54.9071 25.232 54.3791 24.336C53.8511 23.44 53.5871 22.424 53.5871 21.288C53.5871 20.168 53.8431 19.16 54.3551 18.264C54.8831 17.368 55.5871 16.664 56.4671 16.152C57.3631 15.624 58.3631 15.36 59.4671 15.36C60.5231 15.36 61.4511 15.6 62.2511 16.08C63.0671 16.56 63.6991 17.224 64.1471 18.072C64.6111 18.92 64.8431 19.88 64.8431 20.952C64.8431 21.112 64.8351 21.288 64.8191 21.48C64.8031 21.656 64.7711 21.864 64.7231 22.104H55.0991V20.304H63.5711L62.7791 21C62.7791 20.232 62.6431 19.584 62.3711 19.056C62.0991 18.512 61.7151 18.096 61.2191 17.808C60.7231 17.504 60.1231 17.352 59.4191 17.352C58.6831 17.352 58.0351 17.512 57.4751 17.832C56.9151 18.152 56.4831 18.6 56.1791 19.176C55.8751 19.752 55.7231 20.432 55.7231 21.216C55.7231 22.016 55.8831 22.72 56.2031 23.328C56.5231 23.92 56.9791 24.384 57.5711 24.72C58.1631 25.04 58.8431 25.2 59.6111 25.2C60.2511 25.2 60.8351 25.088 61.3631 24.864C61.9071 24.64 62.3711 24.304 62.7551 23.856L64.1471 25.272C63.6031 25.912 62.9311 26.4 62.1311 26.736C61.3471 27.072 60.5071 27.24 59.6111 27.24ZM70.8223 27.24C70.1823 27.24 69.5743 27.16 68.9983 27C68.4383 26.824 67.9183 26.584 67.4383 26.28C66.9583 25.96 66.5423 25.584 66.1903 25.152L67.5823 23.76C67.9983 24.272 68.4783 24.656 69.0223 24.912C69.5663 25.152 70.1743 25.272 70.8463 25.272C71.5183 25.272 72.0383 25.16 72.4063 24.936C72.7743 24.696 72.9583 24.368 72.9583 23.952C72.9583 23.536 72.8063 23.216 72.5023 22.992C72.2143 22.752 71.8383 22.56 71.3743 22.416C70.9103 22.256 70.4143 22.104 69.8863 21.96C69.3743 21.8 68.8863 21.6 68.4223 21.36C67.9583 21.12 67.5743 20.792 67.2703 20.376C66.9823 19.96 66.8383 19.408 66.8383 18.72C66.8383 18.032 67.0063 17.44 67.3423 16.944C67.6783 16.432 68.1423 16.04 68.7343 15.768C69.3423 15.496 70.0703 15.36 70.9183 15.36C71.8143 15.36 72.6063 15.52 73.2943 15.84C73.9983 16.144 74.5743 16.608 75.0223 17.232L73.6303 18.624C73.3103 18.208 72.9103 17.888 72.4303 17.664C71.9663 17.44 71.4383 17.328 70.8463 17.328C70.2223 17.328 69.7423 17.44 69.4063 17.664C69.0863 17.872 68.9263 18.168 68.9263 18.552C68.9263 18.936 69.0703 19.232 69.3583 19.44C69.6463 19.648 70.0223 19.824 70.4863 19.968C70.9663 20.112 71.4623 20.264 71.9743 20.424C72.4863 20.568 72.9743 20.768 73.4383 21.024C73.9023 21.28 74.2783 21.624 74.5663 22.056C74.8703 22.488 75.0223 23.056 75.0223 23.76C75.0223 24.832 74.6383 25.68 73.8703 26.304C73.1183 26.928 72.1023 27.24 70.8223 27.24ZM79.1924 27V10.824H81.3524V27H79.1924ZM76.3844 17.568V15.6H84.1604V17.568H76.3844ZM90.0204 27.096L85.0764 15.6H87.4764L91.1484 24.6H90.3804L94.2444 15.6H96.6444L91.3164 27.096H90.0204ZM86.7564 31.776L90.1164 24.888L91.3164 27.096L89.1564 31.776H86.7564Z" fill="#332E2E"/>
<path d="M19.9141 16.5757V22.269C19.9141 22.9776 20.6308 23.4614 21.288 23.1964L23.8128 22.1785C24.47 21.9135 25.1868 22.3973 25.1868 23.1059V26.2081C25.1868 26.8529 25.788 27.3292 26.4157 27.1816L28.4773 26.6967C29.1049 26.5491 29.7062 27.0253 29.7062 27.6702V34.3796" stroke="#8E5DF5" stroke-width="4.5"/>
<path d="M15.5861 4.0081C11.7144 4.02441 3.7768 6.27677 2.99998 15.1558" stroke="#8E5DF5" stroke-width="4.5"/>
<path d="M19.0241 3.22278C22.8817 3.58402 30.5967 6.5823 30.5967 15.6855" stroke="#8E5DF5" stroke-width="4.5"/>
<path d="M17.2434 31.709C13.3859 31.3477 5.6709 28.3495 5.6709 19.2463" stroke="#8E5DF5" stroke-width="4.5"/>
</svg>
